<svg xmlns="http://www.w3.org/2000/svg" xmlns:svg="http://www.w3.org/2000/svg" id="svg2" width="390" height="500" version="1.0"><metadata id="metadata7"/><g id="layer1"><path style="fill:none;stroke:#000;stroke-width:2.5;stroke-linecap:butt;stroke-linejoin:miter;stroke-miterlimit:4;stroke-opacity:1;stroke-dasharray:none" id="path3150" d="m 202.61131,186.15245 0,77.15733"/><path style="fill:#c2d2e0;fill-opacity:1;fill-rule:evenodd;stroke:#000;stroke-width:2.5;stroke-linecap:butt;stroke-linejoin:miter;stroke-miterlimit:4;stroke-opacity:1;stroke-dasharray:none" id="path2160" d="m 212.35954,39.359209 c -5.47476,-5.02111 -23.52818,-6.78175 -37.26551,-6.78175 -18.70171,0 -3.0402,31.62656 0,33.90878 10.39898,7.8064 -26.04019,-0.25865 -38.95942,-1.69543 -19.77304,-2.19902 -33.87774,-5.60719 -33.87774,18.64983 0,13.03612 -45.985741,4.36411 -57.592171,10.17264 -17.55959,8.787841 1.80064,25.135251 15.24498,30.517911 31.94151,12.78831 11.34483,-4.21746 5.08167,27.12705 -5.79752,29.01412 57.499021,42.38598 76.224931,42.38598 23.52262,0 14.92193,-10.33431 38.9594,1.69544 23.39531,11.70836 7.5945,-21.22103 30.48998,1.69544 24.72815,24.75081 54.89632,-8.93891 74.53103,-22.04071 2.10102,-1.40196 4.51704,-2.2606 6.77556,-3.39088 12.28641,-6.14885 28.66287,-2.86703 40.6533,-11.86809 0.86429,-0.6488 -4.96851,-29.01124 0,-37.29966 7.59592,-12.67147 -5.39326,-22.966411 -15.24499,-25.431601 -2.24934,-0.56285 -13.71841,-29.37192 -22.02054,-35.60423 -8.68967,-6.52323 2.32259,27.40092 -22.02054,-5.08632 -6.78551,-9.05565 -18.47888,-6.81257 -27.10219,-5.08632 -7.9216,1.58577 -10.67315,-11.14793 -20.32665,-13.56351 -3.57426,-0.89439 -11.22139,1.22906 -13.5511,1.69543 z"/><text style="font-size:22px;font-style:normal;font-variant:normal;font-weight:400;font-stretch:normal;text-align:center;line-height:100%;writing-mode:lr-tb;text-anchor:middle;fill:#000;fill-opacity:1;stroke:none;font-family:Sans" id="text3134" x="201.151" y="122.36" xml:space="preserve"><tspan id="tspan3138" x="201.151" y="122.36" style="font-size:24px;font-style:normal;font-variant:normal;font-weight:400;font-stretch:normal;text-align:center;line-height:100%;writing-mode:lr-tb;text-anchor:middle;font-family:Sans">internet</tspan></text><rect style="color:#000;fill:#c2d2e0;fill-opacity:1;fill-rule:evenodd;stroke:#000;stroke-width:2.5;stroke-linecap:butt;stroke-linejoin:miter;stroke-miterlimit:4;stroke-opacity:1;stroke-dasharray:none;stroke-dashoffset:0;marker:none;visibility:visible;display:inline;overflow:visible;enable-background:accumulate" id="rect3168" width="290.528" height="205.944" x="56.987" y="264.264"/><path style="fill:none;stroke:#000;stroke-width:2.5;stroke-linecap:butt;stroke-linejoin:miter;stroke-miterlimit:4;stroke-opacity:1;stroke-dasharray:none" id="path3150-5" d="m 185.21473,350.65894 28.05591,39.34285"/><g id="g3180" transform="translate(12,10)"><rect id="rect3170-1" width="108.664" height="66.329" x="198.171" y="366.81" style="color:#000;fill:#c2d2e0;fill-opacity:1;fill-rule:evenodd;stroke:#000;stroke-width:2.50000024;stroke-linecap:butt;stroke-linejoin:miter;stroke-miterlimit:4;stroke-opacity:1;stroke-dasharray:none;stroke-dashoffset:0;marker:none;visibility:visible;display:inline;overflow:visible;enable-background:accumulate"/><text id="text3174-6" x="251.408" y="395.676" transform="scale(1.0020443,0.99795986)" xml:space="preserve" style="font-size:15.69494343px;font-style:normal;font-variant:normal;font-weight:400;font-stretch:normal;text-align:center;line-height:100%;writing-mode:lr-tb;text-anchor:middle;fill:#000;fill-opacity:1;stroke:none;font-family:Sans"><tspan id="tspan3182-6" x="251.408" y="395.676" style="font-size:22.82901001px;font-style:normal;font-variant:normal;font-weight:400;font-stretch:normal;text-align:center;line-height:100%;writing-mode:lr-tb;text-anchor:middle;font-family:Sans">etsi</tspan><tspan id="tspan3160" x="251.408" y="418.505" style="font-size:22.82901001px;font-style:normal;font-variant:normal;font-weight:400;font-stretch:normal;text-align:center;line-height:100%;writing-mode:lr-tb;text-anchor:middle;font-family:Sans">rcvr</tspan></text></g><g id="g3118" transform="translate(-44.111817,-20.495553)"><rect id="rect3170" width="108.664" height="66.329" x="122.762" y="312.652" style="color:#000;fill:#c2d2e0;fill-opacity:1;fill-rule:evenodd;stroke:#000;stroke-width:2.50000024;stroke-linecap:butt;stroke-linejoin:miter;stroke-miterlimit:4;stroke-opacity:1;stroke-dasharray:none;stroke-dashoffset:0;marker:none;visibility:visible;display:inline;overflow:visible;enable-background:accumulate"/><text id="text3174" x="176.153" y="341.407" transform="scale(1.0020443,0.99795985)" xml:space="preserve" style="font-size:15.69494343px;font-style:normal;font-variant:normal;font-weight:400;font-stretch:normal;text-align:center;line-height:100%;writing-mode:lr-tb;text-anchor:middle;fill:#000;fill-opacity:1;stroke:none;font-family:Sans"><tspan style="font-size:22.82901001px;font-style:normal;font-variant:normal;font-weight:400;font-stretch:normal;text-align:center;line-height:100%;writing-mode:lr-tb;text-anchor:middle;font-family:Sans" id="tspan3178" x="176.153" y="341.407">cyber</tspan><tspan id="tspan3182" x="176.153" y="364.236" style="font-size:22.82901001px;font-style:normal;font-variant:normal;font-weight:400;font-stretch:normal;text-align:center;line-height:100%;writing-mode:lr-tb;text-anchor:middle;font-family:Sans">probe</tspan></text></g></g></svg>